# xmcd
#
# Track frame offsets:
#	150
#	14046
#	33291
#	51117
#	71839
#	88049
#	102441
#	123721
#	154821
#	173611
#	192366
#
# Disc length: 2795 seconds
#
# Revision: 1
# Processed by: cddbd v1.5.2PL0 Copyright (c) Steve Scherf et al.
# Submitted via: audiograbber 1.83.01
#
DISCID=970ae90b
DTITLE=A Favorita - Nacional - Nacional
DYEAR=2008
DGENRE=Novelas
TTITLE0=01. Rithie - Fala
TTITLE1=02. Ney Matogrosso - Pro Dia Nascer Feliz
TTITLE2=03. Adriana Calcanhoto - Maré - Mulher Sem Razão
TTITLE3=04. Ana Carolina - Dois Quartos
TTITLE4=05. Bajonfondo Con Julieta Venagas - Pa'bailar (Siempre Quiero)
TTITLE5=06. Bruno e Marrone - Chalana-Cabecinha no Ombro
TTITLE6=07. Chitãozinho e Xororo e Zé Ramalho - Sinônimos
TTITLE7=08. Ivete Sangalo - Agora Eu Já Sei
TTITLE8=09. Nando Reis - Sou Dela
TTITLE9=10. Vanessa da Mata - Amado
TTITLE10=11. Wanessa Camargo - Me Abrace, Part. Camila
EXTD=
EXTT0=
EXTT1=
EXTT2=
EXTT3=
EXTT4=
EXTT5=
EXTT6=
EXTT7=
EXTT8=
EXTT9=
EXTT10=
PLAYORDER=
